<?xml version="1.0" encoding="UTF-8"?>
<svg height="600" width="800" xmlns="http://www.w3.org/2000/svg" xmlns:xlink="http://www.w3.org/1999/xlink">
    <style>
        .cls-1 { fill: #231F20; stroke-width: 0 }
    </style>
    <g id="Notes" font-family="'LucidaGrande', 'Lucida Grande', sans-serif" font-size="13">
        <rect fill="white" height="600.0" width="800.0" x="0.0" y="0.0" />
        <g font-size="13">
            <text x="18.0" y="176.0">Small</text>
            <text x="18.0" y="376.0">Medium</text>
            <text x="18.0" y="576.0">Large</text>
        </g>
        <g font-size="9">
            <text x="250.0" y="30.0">Ultralight</text>
            <text x="450.0" y="30.0">Regular</text>
            <text x="650.0" y="30.0">Black</text>
            <text id="template-version" fill="#505050" text-anchor="end" x="785.0" y="575.0">Template v.3.0</text>
            <a href="https://github.com/swhitty/SwiftDraw">
                <text fill="#505050" text-anchor="end" x="785.0" y="590.0">https://github.com/swhitty/SwiftDraw</text>
            </a>
        </g>
    </g>
    <g id="Guides" stroke="rgb(39, 170, 225)" stroke-width="0.5">
        <path id="Capline-S" d="M18,76 l800,0" />
        <path id="H-reference" d="M85,145.755 L87.685,145.755 L113.369,79.287 L114.052,79.287 L114.052,76 L112.148,76 L85,145.755 Z M95.693,121.536 L130.996,121.536 L130.263,119.313 L96.474,119.313 L95.693,121.536 Z M139.15,145.755 L141.787,145.755 L114.638,76 L113.466,76 L113.466,79.287 L139.15,145.755 Z" stroke="none" />
        <path id="Baseline-S" d="M18,146 l800,0" />
        <path id="left-margin-Ultralight-S" d="M221,56 l0,110" />
        <path id="right-margin-Ultralight-S" d="M309,56 l0,110" />
        <path id="left-margin-Regular-S" d="M421,56 l0,110" />
        <path id="right-margin-Regular-S" d="M509,56 l0,110" />
        <path id="left-margin-Black-S" d="M621,56 l0,110" />
        <path id="right-margin-Black-S" d="M709,56 l0,110" />
        <path id="Capline-M" d="M18,276 l800,0" />
        <path id="Baseline-M" d="M18,346 l800,0" />
        <path id="Capline-L" d="M18,476 l800,0" />
        <path id="Baseline-L" d="M18,546 l800,0" />
    </g>
    <g id="Symbols">
        <g id="Ultralight-S">
            <path d="M254.776,79.278 L265.689,99.349 L278.463,76.32 L289.109,78.637 L296.295,81.709 L293.625,144.464 L282.524,146 L280.062,139.377 L277.653,108.329 L266.338,123.86 L261.099,123.312 L250.065,105.391 L252.574,145.112 L239.861,143.436 L233.705,139.617 L236.381,77.569 L246.037,76 L254.776,79.278 Z M237.914,138.702 L246.78,139.163 L244.478,93.593 L262.839,122.09 L281.22,93.867 L278.918,139.176 L287.784,138.716 L290.454,78.497 L281.099,79.652 L262.845,103.201 L244.953,79.639 L235.237,78.504 L237.914,138.702 Z" />
        </g>
        <g id="Regular-S">
            <path d="M454.776,79.278 L465.689,99.349 L478.463,76.32 L489.109,78.637 L496.295,81.709 L493.625,144.464 L482.524,146 L480.062,139.377 L477.653,108.329 L466.338,123.86 L461.099,123.312 L450.065,105.391 L452.574,145.112 L439.861,143.436 L433.705,139.617 L436.381,77.569 L446.037,76 L454.776,79.278 Z M437.914,138.702 L446.78,139.163 L444.478,93.593 L462.839,122.09 L481.22,93.867 L478.918,139.176 L487.784,138.716 L490.454,78.497 L481.099,79.652 L462.845,103.201 L444.953,79.639 L435.237,78.504 L437.914,138.702 Z" />
        </g>
        <g id="Black-S">
            <path d="M654.776,79.278 L665.689,99.349 L678.463,76.32 L689.109,78.637 L696.295,81.709 L693.625,144.464 L682.524,146 L680.062,139.377 L677.653,108.329 L666.338,123.86 L661.099,123.312 L650.065,105.391 L652.574,145.112 L639.861,143.436 L633.705,139.617 L636.381,77.569 L646.037,76 L654.776,79.278 Z M637.914,138.702 L646.78,139.163 L644.478,93.593 L662.839,122.09 L681.22,93.867 L678.918,139.176 L687.784,138.716 L690.454,78.497 L681.099,79.652 L662.845,103.201 L644.953,79.639 L635.237,78.504 L637.914,138.702 Z" />
        </g>
    </g>
</svg>