<?xml version="1.0" encoding="UTF-8"?>
<svg height="600" width="800" xmlns="http://www.w3.org/2000/svg" xmlns:xlink="http://www.w3.org/1999/xlink">
    <style>
        .cls-1 { fill: #231F20; stroke-width: 0 }
    </style>
    <g id="Notes" font-family="'LucidaGrande', 'Lucida Grande', sans-serif" font-size="13">
        <rect fill="white" height="600.0" width="800.0" x="0.0" y="0.0" />
        <g font-size="13">
            <text x="18.0" y="176.0">Small</text>
            <text x="18.0" y="376.0">Medium</text>
            <text x="18.0" y="576.0">Large</text>
        </g>
        <g font-size="9">
            <text x="250.0" y="30.0">Ultralight</text>
            <text x="450.0" y="30.0">Regular</text>
            <text x="650.0" y="30.0">Black</text>
            <text id="template-version" fill="#505050" text-anchor="end" x="785.0" y="575.0">Template v.3.0</text>
            <a href="https://github.com/swhitty/SwiftDraw">
                <text fill="#505050" text-anchor="end" x="785.0" y="590.0">https://github.com/swhitty/SwiftDraw</text>
            </a>
        </g>
    </g>
    <g id="Guides" stroke="rgb(39, 170, 225)" stroke-width="0.5">
        <path id="Capline-S" d="M18,76 l800,0" />
        <path id="H-reference" d="M85,145.755 L87.685,145.755 L113.369,79.287 L114.052,79.287 L114.052,76 L112.148,76 L85,145.755 Z M95.693,121.536 L130.996,121.536 L130.263,119.313 L96.474,119.313 L95.693,121.536 Z M139.15,145.755 L141.787,145.755 L114.638,76 L113.466,76 L113.466,79.287 L139.15,145.755 Z" stroke="none" />
        <path id="Baseline-S" d="M18,146 l800,0" />
        <path id="left-margin-Ultralight-S" d="M221,56 l0,110" />
        <path id="right-margin-Ultralight-S" d="M309,56 l0,110" />
        <path id="left-margin-Regular-S" d="M421,56 l0,110" />
        <path id="right-margin-Regular-S" d="M509,56 l0,110" />
        <path id="left-margin-Black-S" d="M621,56 l0,110" />
        <path id="right-margin-Black-S" d="M709,56 l0,110" />
        <path id="Capline-M" d="M18,276 l800,0" />
        <path id="Baseline-M" d="M18,346 l800,0" />
        <path id="Capline-L" d="M18,476 l800,0" />
        <path id="Baseline-L" d="M18,546 l800,0" />
    </g>
    <g id="Symbols">
        <g id="Ultralight-S">
            <path d="M284.674,80.685 L282.741,91.505 L263.191,93.931 L261.883,103.409 L277.399,100.949 L281.029,107.124 L283.003,119.528 L261.997,117.148 L263.346,127.415 L278.352,129.895 L285.043,132.578 L283.311,143.364 L250.205,146 L247.514,139.326 L244.957,76 L277.681,77.968 L284.674,80.685 Z M248.903,138.153 L278.285,140.068 L277.405,131.351 L257.46,129.039 L255.702,111.452 L277.01,113.717 L275.929,105.048 L257.473,102.762 L255.749,85.754 L278.07,88.073 L277.177,79.451 L246.474,77.564 L248.903,138.16 Z" />
        </g>
        <g id="Regular-S">
            <path d="M484.674,80.685 L482.741,91.505 L463.191,93.931 L461.883,103.409 L477.399,100.949 L481.029,107.124 L483.003,119.528 L461.997,117.148 L463.346,127.415 L478.352,129.895 L485.043,132.578 L483.311,143.364 L450.205,146 L447.514,139.326 L444.957,76 L477.681,77.968 L484.674,80.685 Z M448.903,138.153 L478.285,140.068 L477.405,131.351 L457.46,129.039 L455.702,111.452 L477.01,113.717 L475.929,105.048 L457.473,102.762 L455.749,85.754 L478.07,88.073 L477.177,79.451 L446.474,77.564 L448.903,138.16 Z" />
        </g>
        <g id="Black-S">
            <path d="M684.674,80.685 L682.741,91.505 L663.191,93.931 L661.883,103.409 L677.399,100.949 L681.03,107.124 L683.003,119.528 L661.997,117.148 L663.346,127.415 L678.352,129.895 L685.043,132.578 L683.311,143.364 L650.205,146 L647.514,139.326 L644.957,76 L677.681,77.968 L684.674,80.685 Z M648.903,138.153 L678.285,140.068 L677.406,131.351 L657.46,129.039 L655.702,111.452 L677.01,113.717 L675.929,105.048 L657.474,102.762 L655.749,85.754 L678.07,88.073 L677.177,79.451 L646.474,77.564 L648.903,138.16 Z" />
        </g>
    </g>
</svg>