<?xml version="1.0" encoding="UTF-8"?>
<svg height="600" width="800" xmlns="http://www.w3.org/2000/svg" xmlns:xlink="http://www.w3.org/1999/xlink">
    <style>
        .cls-1 { fill: #231F20; stroke-width: 0 }
    </style>
    <g id="Notes" font-family="'LucidaGrande', 'Lucida Grande', sans-serif" font-size="13">
        <rect fill="white" height="600.0" width="800.0" x="0.0" y="0.0" />
        <g font-size="13">
            <text x="18.0" y="176.0">Small</text>
            <text x="18.0" y="376.0">Medium</text>
            <text x="18.0" y="576.0">Large</text>
        </g>
        <g font-size="9">
            <text x="250.0" y="30.0">Ultralight</text>
            <text x="450.0" y="30.0">Regular</text>
            <text x="650.0" y="30.0">Black</text>
            <text id="template-version" fill="#505050" text-anchor="end" x="785.0" y="575.0">Template v.3.0</text>
            <a href="https://github.com/swhitty/SwiftDraw">
                <text fill="#505050" text-anchor="end" x="785.0" y="590.0">https://github.com/swhitty/SwiftDraw</text>
            </a>
        </g>
    </g>
    <g id="Guides" stroke="rgb(39, 170, 225)" stroke-width="0.5">
        <path id="Capline-S" d="M18,76 l800,0" />
        <path id="H-reference" d="M85,145.755 L87.685,145.755 L113.369,79.287 L114.052,79.287 L114.052,76 L112.148,76 L85,145.755 Z M95.693,121.536 L130.996,121.536 L130.263,119.313 L96.474,119.313 L95.693,121.536 Z M139.15,145.755 L141.787,145.755 L114.638,76 L113.466,76 L113.466,79.287 L139.15,145.755 Z" stroke="none" />
        <path id="Baseline-S" d="M18,146 l800,0" />
        <path id="left-margin-Ultralight-S" d="M221,56 l0,110" />
        <path id="right-margin-Ultralight-S" d="M309,56 l0,110" />
        <path id="left-margin-Regular-S" d="M421,56 l0,110" />
        <path id="right-margin-Regular-S" d="M509,56 l0,110" />
        <path id="left-margin-Black-S" d="M621,56 l0,110" />
        <path id="right-margin-Black-S" d="M709,56 l0,110" />
        <path id="Capline-M" d="M18,276 l800,0" />
        <path id="Baseline-M" d="M18,346 l800,0" />
        <path id="Capline-L" d="M18,476 l800,0" />
        <path id="Baseline-L" d="M18,546 l800,0" />
    </g>
    <g id="Symbols">
        <g id="Ultralight-S">
            <path d="M271.953,80.332 L278.716,97.827 L272.539,113.747 L280.435,127.878 L293.608,146 L274.565,143.357 L266.463,134.599 L252.69,120.462 L255.188,145.299 L242.328,143.403 L236.391,139.766 L239.037,77.695 L254.349,76 L271.96,80.332 Z M240.589,138.684 L249.451,139.345 L246.946,114.034 L271.547,139.859 L282.514,137.596 L278.376,128.839 L262.345,111.437 L275.864,96.132 L264.61,82.475 L251.404,77.522 L240.583,79.111 L240.583,138.691 Z M266.856,96.759 L254.709,104.622 L246.919,106.411 L249.491,87.601 L252.923,85.926 L266.856,96.752 Z M261.752,98.548 L252.69,92.741 L255.328,104.308 L261.752,98.541 Z" />
        </g>
        <g id="Regular-S">
            <path d="M471.953,80.332 L478.716,97.827 L472.539,113.747 L480.435,127.878 L493.608,146 L474.565,143.357 L466.463,134.599 L452.69,120.462 L455.188,145.299 L442.328,143.403 L436.392,139.766 L439.037,77.695 L454.349,76 L471.96,80.332 Z M440.589,138.684 L449.451,139.345 L446.946,114.034 L471.547,139.859 L482.514,137.596 L478.376,128.839 L462.345,111.437 L475.864,96.132 L464.61,82.475 L451.404,77.522 L440.583,79.111 L440.583,138.691 Z M466.856,96.759 L454.709,104.622 L446.919,106.411 L449.491,87.601 L452.923,85.926 L466.856,96.752 Z M461.752,98.548 L452.69,92.741 L455.328,104.308 L461.752,98.541 Z" />
        </g>
        <g id="Black-S">
            <path d="M671.953,80.332 L678.716,97.827 L672.539,113.747 L680.435,127.878 L693.609,146 L674.565,143.357 L666.463,134.599 L652.69,120.462 L655.188,145.299 L642.328,143.403 L636.392,139.766 L639.037,77.695 L654.349,76 L671.96,80.332 Z M640.589,138.684 L649.451,139.345 L646.946,114.034 L671.547,139.859 L682.514,137.596 L678.376,128.839 L662.345,111.437 L675.864,96.132 L664.61,82.475 L651.404,77.522 L640.583,79.111 L640.583,138.691 Z M666.856,96.759 L654.709,104.622 L646.919,106.411 L649.491,87.601 L652.923,85.926 L666.856,96.752 Z M661.752,98.548 L652.69,92.741 L655.328,104.308 L661.752,98.541 Z" />
        </g>
    </g>
</svg>