<?xml version="1.0" encoding="UTF-8"?>
<svg height="600" width="800" xmlns="http://www.w3.org/2000/svg" xmlns:xlink="http://www.w3.org/1999/xlink">
    <style>
        .cls-1 { fill: #231F20; stroke-width: 0 }
    </style>
    <g id="Notes" font-family="'LucidaGrande', 'Lucida Grande', sans-serif" font-size="13">
        <rect fill="white" height="600.0" width="800.0" x="0.0" y="0.0" />
        <g font-size="13">
            <text x="18.0" y="176.0">Small</text>
            <text x="18.0" y="376.0">Medium</text>
            <text x="18.0" y="576.0">Large</text>
        </g>
        <g font-size="9">
            <text x="250.0" y="30.0">Ultralight</text>
            <text x="450.0" y="30.0">Regular</text>
            <text x="650.0" y="30.0">Black</text>
            <text id="template-version" fill="#505050" text-anchor="end" x="785.0" y="575.0">Template v.3.0</text>
            <a href="https://github.com/swhitty/SwiftDraw">
                <text fill="#505050" text-anchor="end" x="785.0" y="590.0">https://github.com/swhitty/SwiftDraw</text>
            </a>
        </g>
    </g>
    <g id="Guides" stroke="rgb(39, 170, 225)" stroke-width="0.5">
        <path id="Capline-S" d="M18,76 l800,0" />
        <path id="H-reference" d="M85,145.755 L87.685,145.755 L113.369,79.287 L114.052,79.287 L114.052,76 L112.148,76 L85,145.755 Z M95.693,121.536 L130.996,121.536 L130.263,119.313 L96.474,119.313 L95.693,121.536 Z M139.15,145.755 L141.787,145.755 L114.638,76 L113.466,76 L113.466,79.287 L139.15,145.755 Z" stroke="none" />
        <path id="Baseline-S" d="M18,146 l800,0" />
        <path id="left-margin-Ultralight-S" d="M219.327,56 l0,110" />
        <path id="right-margin-Ultralight-S" d="M310.673,56 l0,110" />
        <path id="left-margin-Regular-S" d="M419.327,56 l0,110" />
        <path id="right-margin-Regular-S" d="M510.673,56 l0,110" />
        <path id="left-margin-Black-S" d="M619.327,56 l0,110" />
        <path id="right-margin-Black-S" d="M710.673,56 l0,110" />
        <path id="Capline-M" d="M18,276 l800,0" />
        <path id="Baseline-M" d="M18,346 l800,0" />
        <path id="Capline-L" d="M18,476 l800,0" />
        <path id="Baseline-L" d="M18,546 l800,0" />
    </g>
    <g id="Symbols">
        <g id="Ultralight-S">
            <path d="M255.015,79.668 L264.691,96.59 L277.585,76 L290.816,78.472 L296.951,82.006 L272.929,109.26 L300.673,144.603 L283.021,143.568 L275.328,141.492 L263.663,121.325 L247.698,146 L236.033,143.615 L229.327,138.805 L255.432,108.756 L230.382,77.471 L245.977,78.506 L255.015,79.668 Z M257.313,108.783 L231.336,138.57 L243.108,137.992 L261.251,117.852 L278.163,138.019 L289.291,138.624 L265.632,108.857 L291.696,79.184 L280.105,79.749 L261.519,99.882 L244.694,79.722 L233.406,79.171 L257.313,108.783 Z" />
        </g>
        <g id="Regular-S">
            <path d="M455.015,79.668 L464.691,96.59 L477.585,76 L490.816,78.472 L496.951,82.006 L472.929,109.26 L500.673,144.603 L483.021,143.568 L475.328,141.492 L463.663,121.325 L447.698,146 L436.033,143.615 L429.327,138.805 L455.432,108.756 L430.382,77.471 L445.977,78.506 L455.015,79.668 Z M457.313,108.783 L431.336,138.57 L443.108,137.992 L461.251,117.852 L478.163,138.019 L489.291,138.624 L465.632,108.857 L491.696,79.184 L480.105,79.749 L461.519,99.882 L444.694,79.722 L433.406,79.171 L457.313,108.783 Z" />
        </g>
        <g id="Black-S">
            <path d="M655.015,79.668 L664.691,96.59 L677.585,76 L690.816,78.472 L696.951,82.006 L672.929,109.26 L700.673,144.603 L683.021,143.568 L675.328,141.492 L663.663,121.325 L647.698,146 L636.033,143.615 L629.327,138.805 L655.432,108.756 L630.382,77.471 L645.977,78.506 L655.015,79.668 Z M657.313,108.783 L631.336,138.57 L643.108,137.992 L661.251,117.852 L678.163,138.019 L689.291,138.624 L665.632,108.857 L691.696,79.184 L680.105,79.749 L661.519,99.882 L644.694,79.722 L633.406,79.171 L657.313,108.783 Z" />
        </g>
    </g>
</svg>