<?xml version="1.0" encoding="UTF-8"?>
<svg height="600" width="800" xmlns="http://www.w3.org/2000/svg" xmlns:xlink="http://www.w3.org/1999/xlink">
    <style>
        .cls-1 { fill: #231F20; stroke-width: 0 }
    </style>
    <g id="Notes" font-family="'LucidaGrande', 'Lucida Grande', sans-serif" font-size="13">
        <rect fill="white" height="600.0" width="800.0" x="0.0" y="0.0" />
        <g font-size="13">
            <text x="18.0" y="176.0">Small</text>
            <text x="18.0" y="376.0">Medium</text>
            <text x="18.0" y="576.0">Large</text>
        </g>
        <g font-size="9">
            <text x="250.0" y="30.0">Ultralight</text>
            <text x="450.0" y="30.0">Regular</text>
            <text x="650.0" y="30.0">Black</text>
            <text id="template-version" fill="#505050" text-anchor="end" x="785.0" y="575.0">Template v.3.0</text>
            <a href="https://github.com/swhitty/SwiftDraw">
                <text fill="#505050" text-anchor="end" x="785.0" y="590.0">https://github.com/swhitty/SwiftDraw</text>
            </a>
        </g>
    </g>
    <g id="Guides" stroke="rgb(39, 170, 225)" stroke-width="0.5">
        <path id="Capline-S" d="M18,76 l800,0" />
        <path id="H-reference" d="M85,145.755 L87.685,145.755 L113.369,79.287 L114.052,79.287 L114.052,76 L112.148,76 L85,145.755 Z M95.693,121.536 L130.996,121.536 L130.263,119.313 L96.474,119.313 L95.693,121.536 Z M139.15,145.755 L141.787,145.755 L114.638,76 L113.466,76 L113.466,79.287 L139.15,145.755 Z" stroke="none" />
        <path id="Baseline-S" d="M18,146 l800,0" />
        <path id="left-margin-Ultralight-S" d="M221,56 l0,110" />
        <path id="right-margin-Ultralight-S" d="M309,56 l0,110" />
        <path id="left-margin-Regular-S" d="M421,56 l0,110" />
        <path id="right-margin-Regular-S" d="M509,56 l0,110" />
        <path id="left-margin-Black-S" d="M621,56 l0,110" />
        <path id="right-margin-Black-S" d="M709,56 l0,110" />
        <path id="Capline-M" d="M18,276 l800,0" />
        <path id="Baseline-M" d="M18,346 l800,0" />
        <path id="Capline-L" d="M18,476 l800,0" />
        <path id="Baseline-L" d="M18,546 l800,0" />
    </g>
    <g id="Symbols">
        <g id="Ultralight-S">
            <path d="M286.597,95.733 L278.491,108.772 L289.124,124.103 L263.747,143.308 L245.896,146 L243.524,139.156 L240.876,76 L262.938,77.792 L286.604,95.727 Z M245.014,138.419 L260.317,140.144 L269.528,136.803 L283.794,122.371 L277.668,112.342 L274.677,108.278 L278.282,94.367 L260.404,76.609 L245.02,78.306 L245.02,138.412 Z M272.331,95.733 L261.307,102.253 L251.341,104.241 L253.807,87.003 L259.501,85.123 L272.331,95.733 Z M274.858,121.83 L263.747,128.891 L251.395,130.98 L253.726,112.992 L262.749,110.949 L274.852,121.83 Z M259.704,101.617 L261.853,103.436 L267.628,96.727 L263.208,91.013 L259.69,92.866 L259.704,101.617 Z M259.643,128.113 L263.571,130.081 L270.155,123.095 L264.832,116.84 L259.623,118.841 L259.636,128.12 Z" />
        </g>
        <g id="Regular-S">
            <path d="M486.597,95.733 L478.491,108.772 L489.124,124.103 L463.747,143.308 L445.896,146 L443.524,139.156 L440.876,76 L462.938,77.792 L486.604,95.727 Z M445.014,138.419 L460.317,140.144 L469.528,136.803 L483.794,122.371 L477.668,112.342 L474.677,108.278 L478.282,94.367 L460.404,76.609 L445.02,78.306 L445.02,138.412 Z M472.332,95.733 L461.307,102.253 L451.341,104.241 L453.807,87.003 L459.501,85.123 L472.332,95.733 Z M474.858,121.83 L463.747,128.891 L451.395,130.98 L453.726,112.992 L462.749,110.949 L474.852,121.83 Z M459.704,101.617 L461.853,103.436 L467.628,96.727 L463.208,91.013 L459.69,92.866 L459.704,101.617 Z M459.643,128.113 L463.571,130.081 L470.155,123.095 L464.832,116.84 L459.623,118.841 L459.636,128.12 Z" />
        </g>
        <g id="Black-S">
            <path d="M686.597,95.733 L678.49,108.772 L689.124,124.103 L663.747,143.308 L645.896,146 L643.524,139.156 L640.876,76 L662.938,77.792 L686.604,95.727 Z M645.014,138.419 L660.317,140.144 L669.528,136.803 L683.794,122.371 L677.668,112.342 L674.677,108.278 L678.282,94.367 L660.404,76.609 L645.02,78.306 L645.02,138.412 Z M672.331,95.733 L661.307,102.253 L651.341,104.241 L653.807,87.003 L659.501,85.123 L672.331,95.733 Z M674.858,121.83 L663.747,128.891 L651.395,130.98 L653.726,112.992 L662.749,110.949 L674.852,121.83 Z M659.703,101.617 L661.853,103.436 L667.628,96.727 L663.208,91.013 L659.69,92.866 L659.703,101.617 Z M659.643,128.113 L663.571,130.081 L670.155,123.095 L664.832,116.84 L659.623,118.841 L659.636,128.12 Z" />
        </g>
    </g>
</svg>